<svg width="42" height="42" viewBox="0 0 42 42" fill="none" xmlns="http://www.w3.org/2000/svg">
<path d="M0 7.58333C0 5.57211 0.798956 3.64326 2.22111 2.22111C3.64326 0.798956 5.57211 0 7.58333 0H34.4167C36.4279 0 38.3567 0.798956 39.7789 2.22111C41.201 3.64326 42 5.57211 42 7.58333V34.4167C42 36.4279 41.201 38.3567 39.7789 39.7789C38.3567 41.201 36.4279 42 34.4167 42H7.58333C5.57211 42 3.64326 41.201 2.22111 39.7789C0.798956 38.3567 0 36.4279 0 34.4167V7.58333ZM22.75 11.0833C22.75 10.6192 22.5656 10.1741 22.2374 9.8459C21.9092 9.51771 21.4641 9.33333 21 9.33333C20.5359 9.33333 20.0908 9.51771 19.7626 9.8459C19.4344 10.1741 19.25 10.6192 19.25 11.0833V19.25H11.0833C10.6192 19.25 10.1741 19.4344 9.8459 19.7626C9.51771 20.0908 9.33333 20.5359 9.33333 21C9.33333 21.4641 9.51771 21.9092 9.8459 22.2374C10.1741 22.5656 10.6192 22.75 11.0833 22.75H19.25V30.9167C19.25 31.3808 19.4344 31.8259 19.7626 32.1541C20.0908 32.4823 20.5359 32.6667 21 32.6667C21.4641 32.6667 21.9092 32.4823 22.2374 32.1541C22.5656 31.8259 22.75 31.3808 22.75 30.9167V22.75H30.9167C31.3808 22.75 31.8259 22.5656 32.1541 22.2374C32.4823 21.9092 32.6667 21.4641 32.6667 21C32.6667 20.5359 32.4823 20.0908 32.1541 19.7626C31.8259 19.4344 31.3808 19.25 30.9167 19.25H22.75V11.0833Z" fill="#192B6D"/>
</svg>
