<svg width="24" height="24" viewBox="0 0 24 24" fill="none" xmlns="http://www.w3.org/2000/svg">
<path d="M15.891 3.04807C16.562 2.37694 17.4721 1.99985 18.4211 1.99976C19.3702 1.99966 20.2804 2.37657 20.9515 3.04757C21.6226 3.71857 21.9997 4.62869 21.9998 5.57772C21.9999 6.52674 21.623 7.43694 20.952 8.10807L20.06 9.00007L15 3.94007L15.891 3.04807ZM13.94 5.00007L3.93999 14.9991C3.53362 15.4056 3.24803 15.9169 3.11499 16.4761L2.01999 21.0771C1.99034 21.2017 1.99312 21.3319 2.02806 21.4552C2.06301 21.5784 2.12895 21.6907 2.2196 21.7812C2.31025 21.8718 2.42258 21.9376 2.54589 21.9724C2.6692 22.0072 2.79937 22.0099 2.92399 21.9801L7.52499 20.8851C8.0843 20.7518 8.59563 20.4658 9.00199 20.0591L19 10.0621L13.939 5.00007H13.94Z" fill="#192B6D"/>
</svg>
