<svg width="117" height="104" viewBox="0 0 117 104" fill="none" xmlns="http://www.w3.org/2000/svg">
<g clip-path="url(#clip0_160_371)">
<path d="M85.9698 53.6933C86.8327 51.265 87.0976 48.6663 86.7425 46.1151C86.3874 43.5639 85.4225 41.1346 83.9289 39.031C82.4352 36.9274 80.4563 35.2109 78.1581 34.0253C75.8599 32.8398 73.3095 32.2199 70.7208 32.2175H46.5885C45.1564 32.2175 43.7831 31.6516 42.7705 30.6441C41.7579 29.6367 41.189 28.2703 41.189 26.8455C41.189 25.4208 41.7579 24.0544 42.7705 23.0469C43.7831 22.0395 45.1564 21.4735 46.5885 21.4735H92.637C90.7218 17.4737 88.1122 13.8415 84.9282 10.744H46.5885C44.4509 10.7263 42.3309 11.1299 40.3509 11.9315C38.3708 12.7331 36.5699 13.9168 35.0521 15.4144C33.5342 16.912 32.3295 18.6938 31.5073 20.657C30.6851 22.6202 30.2618 24.726 30.2618 26.8528C30.2618 28.9796 30.6851 31.0854 31.5073 33.0486C32.3295 35.0118 33.5342 36.7936 35.0521 38.2912C36.5699 39.7888 38.3708 40.9725 40.3509 41.7741C42.3309 42.5757 44.4509 42.9793 46.5885 42.9616H70.7208C71.4455 42.9361 72.1679 43.0561 72.8449 43.3144C73.522 43.5727 74.1398 43.9641 74.6616 44.4651C75.1833 44.9661 75.5982 45.5666 75.8817 46.2307C76.1651 46.8947 76.3111 47.6088 76.3111 48.3302C76.3111 49.0517 76.1651 49.7658 75.8817 50.4298C75.5982 51.0939 75.1833 51.6943 74.6616 52.1954C74.1398 52.6964 73.522 53.0878 72.8449 53.3461C72.1679 53.6044 71.4455 53.7244 70.7208 53.6989H20.7205V64.4429H70.7208C74.0682 64.4416 77.3327 63.4068 80.064 61.4814C82.7953 59.556 84.8587 56.8349 85.9698 53.6933Z" fill="white"/>
<path d="M30.3541 7.77152L32.3552 5.832L29.5903 5.43245L28.354 2.94118L27.1177 5.43245L24.3539 5.832L26.3539 7.77152L25.8826 10.5112L28.354 9.21748L30.8265 10.5112L30.3541 7.77152Z" fill="white"/>
<path d="M96.2356 35.8571C96.2277 35.7038 96.2187 35.5504 96.2097 35.3971C96.1835 34.9375 96.1486 34.4801 96.1051 34.025C96.0927 33.8963 96.0837 33.7676 96.0702 33.6389C96.0173 33.1286 95.9499 32.6227 95.8756 32.1179C95.8374 31.8505 95.7912 31.5863 95.7462 31.3211C95.6956 31.0245 95.6439 30.7279 95.5865 30.4336C95.5381 30.1807 95.4875 29.93 95.4347 29.6793C95.3615 29.3435 95.2828 29.0078 95.2007 28.672C95.1523 28.4706 95.1073 28.268 95.0544 28.0677C94.9228 27.564 94.7788 27.0604 94.627 26.5691C94.5651 26.3699 94.4987 26.1751 94.4346 25.9771C94.3221 25.6413 94.2153 25.3134 94.0972 24.9855C94.0222 24.7743 93.9449 24.5639 93.8654 24.3543C93.7394 24.0185 93.6067 23.6895 93.4706 23.3593C93.3975 23.1803 93.3266 22.9989 93.2456 22.821C93.0499 22.3666 92.8455 21.9171 92.6325 21.4724H46.5885C45.1564 21.4724 43.7831 22.0384 42.7705 23.0458C41.7579 24.0533 41.189 25.4197 41.189 26.8444C41.189 28.2692 41.7579 29.6356 42.7705 30.643C43.7831 31.6504 45.1564 32.2164 46.5885 32.2164H70.7208C75.0145 32.2164 79.1323 33.9134 82.1684 36.9341C85.2046 39.9548 86.9102 44.0517 86.9102 48.3235C86.9102 52.5954 85.2046 56.6923 82.1684 59.713C79.1323 62.7336 75.0145 64.4306 70.7208 64.4306H20.7205V71.8563C20.7205 72.7359 21.0716 73.5795 21.6966 74.2015C22.3217 74.8236 23.1694 75.1732 24.0535 75.1735H58.5045C59.1501 75.1735 59.7921 75.1571 60.4303 75.1243C60.6552 75.1142 60.8667 75.0907 61.0861 75.0762C61.5045 75.0482 61.923 75.0224 62.337 74.981C62.5912 74.9553 62.8409 74.9172 63.094 74.887C63.4686 74.8423 63.8443 74.8008 64.2189 74.7449C64.4855 74.7046 64.7487 74.652 65.0131 74.6061C65.3652 74.5446 65.7195 74.4942 66.0682 74.4181C66.3371 74.3644 66.6003 74.2972 66.8669 74.2379C67.2044 74.1607 67.5497 74.0891 67.8793 74.004C68.1493 73.9346 68.4159 73.854 68.6836 73.7802C69.0098 73.6884 69.3383 73.6033 69.6611 73.5037C69.9334 73.4198 70.1988 73.3258 70.4677 73.2362C70.7815 73.1322 71.0965 73.0314 71.4058 72.9195C71.6781 72.821 71.9447 72.7125 72.2135 72.6084C72.5127 72.4965 72.8153 72.3846 73.1134 72.2559C73.3845 72.1439 73.6511 72.0175 73.92 71.8977C74.2057 71.7713 74.4937 71.647 74.776 71.5127C75.0584 71.3784 75.3103 71.2452 75.5769 71.1109C75.8435 70.9766 76.1259 70.8379 76.3947 70.6946C76.6636 70.5514 76.9246 70.3969 77.1889 70.2469C77.4533 70.097 77.7109 69.9548 77.9673 69.7993C78.2238 69.6437 78.4983 69.4635 78.7626 69.3012C79.0045 69.1468 79.2497 68.9968 79.4882 68.8379C79.7582 68.6577 80.0214 68.4686 80.2869 68.2783C80.5118 68.1205 80.7368 67.9661 80.9618 67.8027C81.2329 67.6023 81.4972 67.3942 81.7627 67.1871C81.9674 67.0271 82.1755 66.8704 82.3769 66.707C82.6503 66.4832 82.9169 66.2537 83.1846 66.0232C83.3691 65.8654 83.5547 65.7098 83.7369 65.5487C84.0114 65.3013 84.2791 65.0473 84.5468 64.7932C84.7133 64.6354 84.8843 64.481 85.0452 64.3209C85.2521 64.1184 85.4524 63.9091 85.6537 63.702C85.8551 63.495 86.0756 63.27 86.2803 63.0484C86.4558 62.8593 86.6256 62.6668 86.7977 62.4732C87.0227 62.227 87.2353 61.9785 87.449 61.7256C87.6065 61.5398 87.7606 61.3507 87.9136 61.166C88.1296 60.8996 88.3411 60.6322 88.5503 60.3602C88.6954 60.1711 88.8383 59.9797 88.98 59.7883C89.1859 59.5096 89.3872 59.2287 89.5852 58.9422C89.7202 58.7475 89.8552 58.5527 89.9868 58.3558C90.1803 58.0659 90.367 57.7727 90.5492 57.4772C90.6741 57.2769 90.8012 57.0777 90.9238 56.8751C91.1061 56.5729 91.2793 56.2652 91.4537 55.9574C91.5661 55.7559 91.6786 55.5556 91.7911 55.3519C91.97 55.0229 92.1376 54.6871 92.3063 54.3525C92.4008 54.1645 92.4987 53.9798 92.5887 53.7929C92.8257 53.3005 93.0506 52.8028 93.2636 52.2999C93.3109 52.188 93.3547 52.0761 93.4008 51.9642C93.5711 51.5568 93.7338 51.1464 93.8891 50.7331C93.9464 50.5798 94.0015 50.4253 94.0578 50.272C94.2078 49.8601 94.3491 49.4453 94.4819 49.0275C94.5201 48.9055 94.5617 48.7846 94.6 48.6615C94.7657 48.1288 94.9195 47.5905 95.0612 47.0466C95.0904 46.9346 95.1163 46.816 95.1444 46.7007C95.2502 46.2814 95.348 45.8595 95.438 45.4349C95.483 45.2231 95.5261 45.0104 95.5674 44.797C95.6315 44.4702 95.6889 44.1412 95.744 43.811C95.7867 43.5592 95.8306 43.3085 95.8666 43.0556C95.9409 42.5508 96.0083 42.0483 96.0612 41.5335C96.0747 41.4048 96.0837 41.2761 96.0961 41.1474C96.1403 40.6923 96.1752 40.2349 96.2007 39.7753C96.2097 39.622 96.2187 39.4687 96.2266 39.3153C96.2513 38.7412 96.2693 38.1659 96.2693 37.5862C96.2783 37.0065 96.2603 36.4312 96.2356 35.8571Z" fill="#D52230"/>
<path d="M76.1203 48.3246C76.1203 46.8999 75.5514 45.5335 74.5388 44.5261C73.5262 43.5186 72.1529 42.9526 70.7208 42.9526H46.5885C44.4509 42.9704 42.3309 42.5668 40.3509 41.7652C38.3709 40.9636 36.57 39.7798 35.0521 38.2822C33.5343 36.7846 32.3295 35.0028 31.5073 33.0396C30.6852 31.0764 30.2619 28.9707 30.2619 26.8439C30.2619 24.717 30.6852 22.6113 31.5073 20.6481C32.3295 18.6849 33.5343 16.9031 35.0521 15.4055C36.57 13.9079 38.3709 12.7241 40.3509 11.9225C42.3309 11.1209 44.4509 10.7174 46.5885 10.7351H84.9282C84.8011 10.612 84.6717 10.4922 84.5446 10.3702C84.2746 10.1151 84.0058 9.85989 83.7291 9.61255C83.5547 9.45587 83.3736 9.3059 83.1959 9.15257C82.9214 8.91643 82.648 8.68028 82.368 8.45197C82.1767 8.29753 81.981 8.14868 81.7875 7.99759C81.5097 7.78159 81.2329 7.56447 80.9495 7.35519C80.7447 7.2041 80.5332 7.06084 80.3263 6.91311C80.0439 6.71502 79.7638 6.51469 79.4792 6.32443C79.2542 6.17782 79.0293 6.03904 78.8043 5.89691C78.5219 5.71672 78.2419 5.5343 77.9528 5.36194C77.7165 5.22093 77.4758 5.08887 77.2362 4.95233C76.9516 4.79117 76.6737 4.62553 76.3813 4.47108C76.1304 4.33678 75.8739 4.21256 75.6208 4.08385C75.3363 3.93836 75.0528 3.79063 74.7637 3.65409C74.4993 3.52762 74.2282 3.41123 73.9594 3.29148C73.6737 3.16389 73.3902 3.03183 73.1022 2.91208C72.8142 2.79233 72.5398 2.68825 72.254 2.57633C71.9683 2.46441 71.6916 2.3525 71.398 2.24617C71.1044 2.13985 70.8052 2.04584 70.5082 1.94624C70.2112 1.84663 69.9458 1.7515 69.6544 1.66309C69.3462 1.56796 69.0312 1.48626 68.7196 1.39896C68.4384 1.32062 68.1572 1.23556 67.8748 1.16394C67.5475 1.08 67.2157 1.01061 66.8849 0.940103C66.6093 0.878549 66.3371 0.80916 66.0593 0.753202C65.7139 0.683813 65.3652 0.628974 65.0176 0.568539C64.7476 0.521533 64.481 0.467813 64.2111 0.427523C63.841 0.371564 63.4664 0.331274 63.0941 0.286507C62.8398 0.255171 62.5879 0.217119 62.3325 0.191378C61.9197 0.149969 61.5023 0.125347 61.085 0.0962487C60.86 0.0816995 60.6474 0.0581967 60.4258 0.047005C59.7884 0.0156682 59.1464 -0.000373262 58.5 -0.00111938H24.0536C23.1705 -0.00111938 22.3236 0.347901 21.6991 0.969161C21.0747 1.59042 20.7239 2.43303 20.7239 3.31162V53.6933H70.7208C72.1523 53.6933 73.5251 53.1278 74.5376 52.1211C75.5501 51.1143 76.1194 49.7488 76.1203 48.3246V48.3246ZM25.8826 10.5112L26.354 7.77152L24.3539 5.832L27.1178 5.43245L28.3551 2.94118L29.5925 5.43245L32.3564 5.832L30.353 7.77152L30.8254 10.5112L28.3506 9.21748L25.8826 10.5112Z" fill="#314694"/>
<path d="M0.0404842 100.46V98.3068C0.787153 98.9367 1.73312 99.2847 2.7121 99.2894C2.95416 99.2929 3.19579 99.2681 3.43203 99.2155C3.61411 99.176 3.78825 99.1064 3.94723 99.0096C4.07395 98.9334 4.17982 98.8273 4.25545 98.7007C4.32315 98.5828 4.35846 98.4493 4.35782 98.3135C4.35969 98.1325 4.30245 97.9557 4.19471 97.8099C4.07236 97.6481 3.92234 97.5091 3.7515 97.3991C3.53992 97.2583 3.31677 97.1355 3.08444 97.032C2.82684 96.9201 2.55012 96.7959 2.25202 96.675C1.49534 96.3617 0.932898 95.9782 0.564684 95.5245C0.186726 95.0613 -0.0127133 94.4791 0.0022379 93.8827C-0.0103841 93.4317 0.0946435 92.9852 0.307084 92.5867C0.507217 92.2264 0.791573 91.9193 1.13613 91.6914C1.50507 91.4525 1.91377 91.2808 2.34314 91.1844C2.82222 91.0714 3.31315 91.0158 3.8055 91.0187C4.25492 91.0146 4.70398 91.0453 5.14862 91.1105C5.5171 91.1652 5.87871 91.2586 6.22739 91.3892V93.4037C6.05995 93.2888 5.88221 93.1895 5.69644 93.1071C5.50564 93.0206 5.30861 92.9484 5.107 92.8911C4.90835 92.836 4.70615 92.7945 4.50181 92.7669C4.31214 92.7399 4.12083 92.7261 3.92924 92.7255C3.70223 92.7232 3.47572 92.7472 3.2543 92.7971C3.07259 92.8378 2.89864 92.9074 2.7391 93.003C2.60884 93.0791 2.49798 93.184 2.41513 93.3097C2.33883 93.4289 2.2997 93.5679 2.30264 93.7092C2.30033 93.8637 2.34546 94.0152 2.432 94.1435C2.53036 94.283 2.65258 94.4042 2.79309 94.5016C2.97436 94.6302 3.16672 94.7425 3.36791 94.8373C3.59289 94.947 3.84749 95.0589 4.13172 95.1731C4.49176 95.3213 4.84127 95.4937 5.17786 95.689C5.46945 95.8578 5.73663 96.0653 5.97204 96.3057C6.19153 96.5311 6.36429 96.7973 6.48049 97.0891C6.75352 97.8694 6.70582 98.7253 6.34775 99.4707C6.14829 99.8315 5.86137 100.137 5.51308 100.359C5.13724 100.596 4.72085 100.762 4.2847 100.848C3.79842 100.948 3.30306 100.997 2.80659 100.995C2.29731 100.997 1.78893 100.952 1.28799 100.861C0.854986 100.787 0.434843 100.652 0.0404842 100.46V100.46Z" fill="#D52230"/>
<path d="M14.6236 100.831H12.493V99.7807H12.4593C11.9343 100.593 11.2286 100.999 10.3422 100.998C8.73589 100.998 7.93309 100.032 7.93384 98.0986V93.9398H10.0644V97.9106C10.0644 98.8805 10.4521 99.3655 11.2275 99.3655C11.4013 99.3724 11.5743 99.34 11.7337 99.2708C11.8931 99.2016 12.0346 99.0974 12.1477 98.966C12.3787 98.6981 12.4938 98.3355 12.493 97.8781V93.9398H14.6236V100.831Z" fill="#D52230"/>
<path d="M18.5865 100.03H18.5595V104H16.4222V93.9398H18.5595V94.9761H18.5865C19.1115 94.1741 19.8535 93.7727 20.8127 93.7719C21.7126 93.7719 22.4059 94.0778 22.8926 94.6896C23.3793 95.3014 23.6238 96.1348 23.626 97.1898C23.626 98.3389 23.3407 99.2607 22.77 99.9553C22.1993 100.65 21.4408 100.998 20.4943 100.998C19.6597 100.998 19.0237 100.676 18.5865 100.03ZM18.5258 97.2033V97.755C18.5078 98.1762 18.6427 98.5898 18.906 98.9201C19.0258 99.0657 19.1778 99.1818 19.35 99.2595C19.5223 99.3371 19.7103 99.3742 19.8993 99.3678C20.1202 99.3772 20.34 99.3309 20.5381 99.2331C20.7362 99.1352 20.9061 98.989 21.032 98.8082C21.3009 98.4344 21.4348 97.9028 21.4348 97.2167C21.4348 96.0058 20.9612 95.4003 20.014 95.4003C19.8091 95.3952 19.6058 95.4372 19.4199 95.523C19.234 95.6088 19.0704 95.7361 18.942 95.895C18.6653 96.224 18.5265 96.6601 18.5258 97.2033Z" fill="#D52230"/>
<path d="M29.5318 95.858C29.2544 95.7138 28.9448 95.6418 28.6319 95.6488C28.4224 95.6396 28.2139 95.681 28.0241 95.7695C27.8343 95.858 27.6688 95.9909 27.5418 96.1569C27.2809 96.4963 27.15 96.9574 27.1493 97.5401V100.831H25.012V93.9398H27.1493V95.2179H27.1774C27.5148 94.286 28.1238 93.8197 29.0042 93.8189C29.1837 93.8114 29.3628 93.8388 29.5318 93.8995V95.858Z" fill="#D52230"/>
<path d="M36.7479 97.9912H32.2304C32.3016 98.9932 32.9349 99.4942 34.1303 99.4942C34.8378 99.5086 35.5348 99.3219 36.1394 98.9559V100.49C35.4989 100.831 34.6669 101.001 33.6432 101.001C32.5251 101.001 31.657 100.692 31.0391 100.076C30.4212 99.4599 30.1122 98.5996 30.1122 97.4954C30.1122 96.3501 30.4459 95.444 31.1133 94.7769C31.4322 94.4498 31.8154 94.1915 32.2391 94.0182C32.6628 93.8449 33.1178 93.7603 33.5757 93.7697C34.5859 93.7697 35.3669 94.0681 35.9189 94.665C36.4708 95.2619 36.7472 96.0718 36.7479 97.0947V97.9912ZM34.7659 96.6851C34.7659 95.698 34.3647 95.2044 33.5622 95.2044C33.3916 95.2051 33.2232 95.2435 33.0693 95.3168C32.9154 95.3902 32.7799 95.4967 32.6724 95.6286C32.4157 95.9264 32.2564 96.2949 32.2157 96.6851H34.7659Z" fill="#D52230"/>
<path d="M49.0172 100.831H46.8889V96.9C46.8889 95.9002 46.5191 95.4003 45.7797 95.4003C45.6104 95.3976 45.4432 95.4371 45.2932 95.5153C45.1433 95.5935 45.0155 95.7079 44.9214 95.848C44.6921 96.1755 44.5757 96.5682 44.5896 96.9671V100.823H42.4523V96.8608C42.4523 95.8871 42.0893 95.4003 41.3634 95.4003C41.1932 95.3954 41.0243 95.432 40.8716 95.5069C40.7189 95.5818 40.5869 95.6927 40.4871 95.8301C40.2689 96.1181 40.1598 96.5086 40.1598 97.0018V100.831H38.0225V93.9398H40.1598V95.0175H40.1868C40.4212 94.6365 40.7503 94.3218 41.1424 94.1039C41.5344 93.8859 41.9762 93.772 42.4253 93.773C43.4002 93.773 44.0695 94.2013 44.4332 95.0578C44.9619 94.2005 45.7377 93.7723 46.7606 93.773C48.2657 93.773 49.0187 94.6971 49.0194 96.5452L49.0172 100.831Z" fill="#D52230"/>
<path d="M56.9308 97.9912H52.4132C52.4852 98.9932 53.1185 99.4942 54.3131 99.4942C55.0207 99.509 55.7178 99.3222 56.3222 98.9559V100.49C55.6818 100.831 54.8497 101.001 53.8261 101.001C52.7087 101.001 51.8406 100.692 51.2219 100.076C50.6032 99.4599 50.2946 98.5996 50.2961 97.4954C50.2961 96.3501 50.6295 95.444 51.2962 94.7769C51.6151 94.4498 51.9983 94.1915 52.4219 94.0182C52.8456 93.8449 53.3006 93.7603 53.7586 93.7697C54.7687 93.7697 55.5498 94.0681 56.1017 94.665C56.6537 95.2619 56.93 96.0718 56.9308 97.0947V97.9912ZM54.9487 96.6851C54.9487 95.698 54.5475 95.2044 53.7451 95.2044C53.5745 95.2053 53.4062 95.2438 53.2523 95.3172C53.0985 95.3905 52.9629 95.4969 52.8553 95.6286C52.5989 95.9263 52.4403 96.295 52.4008 96.6851H54.9487Z" fill="#D52230"/>
<path d="M62.2335 100.831V91.181H65.6746C69.119 91.181 70.8416 92.7479 70.8423 95.8815C70.8423 97.3835 70.3721 98.5832 69.4317 99.4808C68.4913 100.378 67.2389 100.826 65.6746 100.824L62.2335 100.831ZM64.4192 92.9504V99.0678H65.5013C66.4477 99.0678 67.1905 98.785 67.7297 98.2195C68.2689 97.6539 68.5382 96.8851 68.5374 95.9129C68.5374 94.9929 68.2704 94.2696 67.7365 93.7428C67.2025 93.216 66.4526 92.9523 65.4867 92.9516L64.4192 92.9504Z" fill="#314694"/>
<path d="M74.3745 93.9398H72.2372V100.831H74.3745V93.9398Z" fill="#314694"/>
<path d="M75.721 100.649V98.9268C76.0501 99.1272 76.4036 99.2851 76.7727 99.3969C77.0939 99.4955 77.4277 99.5475 77.7638 99.5513C78.0714 99.5653 78.3785 99.5126 78.6637 99.3969C78.7604 99.3616 78.8438 99.2976 78.9026 99.2135C78.9614 99.1294 78.9927 99.0293 78.9922 98.9268C78.9935 98.8634 78.9807 98.8004 78.9549 98.7424C78.929 98.6843 78.8907 98.6327 78.8425 98.5911C78.7292 98.4922 78.6004 98.4124 78.4612 98.3549C78.295 98.2838 78.1244 98.2232 77.9505 98.1736C77.766 98.1199 77.5883 98.0617 77.4162 97.9923C77.1654 97.8989 76.9221 97.7867 76.6884 97.6565C76.4915 97.5478 76.3137 97.408 76.1619 97.2425C76.0168 97.0839 75.9048 96.8983 75.8323 96.6963C75.753 96.4601 75.7149 96.2122 75.7198 95.9632C75.7101 95.6142 75.7981 95.2693 75.9741 94.9672C76.1421 94.6898 76.3733 94.4556 76.649 94.2834C76.9468 94.1005 77.2735 93.9688 77.6153 93.8939C77.9873 93.8101 78.3677 93.7684 78.7492 93.7697C79.0617 93.7701 79.3738 93.7937 79.6828 93.8402C79.9981 93.8867 80.3097 93.9552 80.6154 94.045V95.689C80.3434 95.5319 80.0508 95.4132 79.7458 95.3365C79.4487 95.2592 79.1429 95.2194 78.8358 95.2179C78.7033 95.2178 78.5711 95.2301 78.441 95.2548C78.3274 95.2776 78.2173 95.3152 78.1136 95.3667C78.0248 95.4078 77.9475 95.4701 77.8886 95.548C77.8341 95.6206 77.8052 95.7092 77.8065 95.7998C77.8045 95.9193 77.8484 96.0349 77.9291 96.1233C78.0192 96.2202 78.1273 96.2989 78.2475 96.355C78.3878 96.4248 78.5333 96.4835 78.6828 96.5307C78.8437 96.5821 79.0023 96.6347 79.1598 96.6885C79.4239 96.7792 79.6817 96.8872 79.9314 97.0119C80.1481 97.1189 80.3475 97.2573 80.5231 97.4226C80.6868 97.5783 80.8159 97.7662 80.9022 97.9744C81.0083 98.2669 81.0511 98.5785 81.0276 98.8887C81.0042 99.1988 80.915 99.5005 80.7661 99.774C80.5894 100.063 80.346 100.305 80.0563 100.481C79.7409 100.67 79.3955 100.805 79.0349 100.879C78.6399 100.962 78.2372 101.003 77.8335 101.002C77.1141 101.007 76.3993 100.888 75.721 100.649V100.649Z" fill="#314694"/>
<path d="M84.4332 100.03H84.4062V104H82.2689V93.9398H84.4062V94.9761H84.4332C84.9582 94.1741 85.6998 93.7727 86.6582 93.7719C87.5582 93.7719 88.2511 94.0778 88.737 94.6896C89.223 95.3014 89.4679 96.1348 89.4716 97.1898C89.4716 98.3389 89.1863 99.2607 88.6156 99.9553C88.0449 100.65 87.2863 100.998 86.3399 100.998C85.5052 100.998 84.8697 100.676 84.4332 100.03ZM84.3713 97.2033V97.755C84.353 98.1761 84.4876 98.5896 84.7504 98.9201C84.8707 99.0654 85.023 99.1813 85.1953 99.2589C85.3677 99.3365 85.5557 99.3737 85.7448 99.3678C85.9658 99.3774 86.1856 99.3311 86.3837 99.2332C86.5818 99.1353 86.7517 98.9891 86.8776 98.8082C87.1453 98.4344 87.2803 97.9028 87.2803 97.2167C87.2803 96.0058 86.8067 95.4003 85.8596 95.4003C85.6547 95.3951 85.4513 95.4371 85.2654 95.5229C85.0795 95.6087 84.9159 95.736 84.7875 95.895C84.5101 96.224 84.3713 96.6601 84.3713 97.2033Z" fill="#314694"/>
<path d="M96.6203 100.831H94.5955V99.8412H94.5696C94.1039 100.613 93.4177 100.998 92.5055 100.998C91.8305 100.998 91.3022 100.809 90.9205 100.43C90.5388 100.051 90.346 99.545 90.3423 98.9123C90.3423 97.576 91.138 96.8045 92.7293 96.5978L94.609 96.3482C94.609 95.5947 94.1992 95.2179 93.3795 95.2179C92.5387 95.2226 91.7186 95.4779 91.0251 95.9509V94.346C91.4141 94.1619 91.8244 94.0262 92.2467 93.942C92.7081 93.8316 93.1806 93.773 93.6551 93.7674C95.6319 93.7674 96.6196 94.7474 96.6181 96.7075L96.6203 100.831ZM94.6113 98.0326V97.5681L93.3536 97.7293C92.6599 97.8188 92.3127 98.1307 92.312 98.6649C92.3085 98.7765 92.3293 98.8874 92.373 98.9902C92.4167 99.093 92.4822 99.1851 92.5651 99.2603C92.7557 99.4227 93.0018 99.5061 93.2524 99.4931C93.4363 99.499 93.6193 99.465 93.7886 99.3935C93.958 99.322 94.1097 99.2147 94.2333 99.079C94.4899 98.7911 94.6252 98.416 94.6113 98.0315V98.0326Z" fill="#314694"/>
<path d="M102.499 100.75C102.183 100.916 101.707 100.998 101.072 100.998C99.5657 100.998 98.8128 100.22 98.8128 98.6638V95.5077H97.6879V93.9409H98.8128V92.4524L100.943 91.8469V93.9398H102.499V95.5066H100.943V98.2922C100.943 99.0107 101.23 99.3696 101.803 99.3689C102.048 99.3635 102.287 99.2961 102.499 99.173V100.75Z" fill="#314694"/>
<path d="M108.951 100.581C108.47 100.86 107.773 100.999 106.86 100.998C105.797 100.998 104.934 100.678 104.273 100.037C103.612 99.3961 103.282 98.5683 103.285 97.5536C103.285 96.3822 103.639 95.4592 104.345 94.7847C105.051 94.1103 105.995 93.7745 107.175 93.7775C107.991 93.7775 108.582 93.8849 108.947 94.0998V95.9039C108.518 95.5776 107.992 95.4024 107.452 95.4059C106.839 95.4059 106.352 95.5842 105.99 95.9409C105.632 96.2967 105.453 96.7903 105.453 97.4182C105.453 98.0281 105.623 98.506 105.966 98.8541C106.309 99.2021 106.78 99.3756 107.38 99.3756C107.939 99.3674 108.483 99.1941 108.942 98.8776L108.951 100.581Z" fill="#314694"/>
<path d="M117 100.831H114.869V96.9134C114.869 95.9047 114.5 95.4003 113.76 95.4003C113.585 95.395 113.41 95.4305 113.251 95.504C113.091 95.5774 112.951 95.6867 112.841 95.8233C112.599 96.129 112.474 96.5108 112.489 96.9V100.831H110.352V90.6282H112.489V94.9627H112.516C113.041 94.1681 113.751 93.7711 114.647 93.7719C116.216 93.7719 117.001 94.7139 117 96.5978V100.831Z" fill="#314694"/>
<path d="M73.3059 90.4088L73.7761 91.3556L74.8267 91.5078L74.0663 92.2442L74.2463 93.2851L73.3059 92.7937L72.3666 93.2851L72.5454 92.2442L71.7861 91.5078L72.8368 91.3556L73.3059 90.4088Z" fill="#314694"/>
</g>
<defs>
<clipPath id="clip0_160_371">
<rect width="117" height="104" fill="white"/>
</clipPath>
</defs>
</svg>
